<svg width="1024" height="1024" viewBox="0 0 1024 1024" fill="none" xmlns="http://www.w3.org/2000/svg">
  <g stroke="#555" stroke-width="6" stroke-linecap="round" stroke-linejoin="round">
    
    <path d="M140 120
             C120 240, 220 320, 300 400
             C380 480, 420 600, 360 720
             C310 820, 180 780, 120 700
             C80 650, 100 580, 180 610
             C240 635, 240 720, 190 740
             C150 755, 120 730, 125 695" />

    <path d="M215 200
             C290 180, 330 240, 295 290
             C260 340, 190 300, 220 245
             C240 210, 285 225, 270 260" />

    <path d="M175 420
             C260 390, 330 470, 310 590
             C295 690, 210 730, 155 690
             C110 655, 120 590, 180 605
             C220 615, 225 665, 190 680" />

    <path d="M310 520
             C360 700, 290 860, 210 920" />

    <path d="M310 740
             C450 650, 620 690, 760 820
             C850 900, 930 920, 980 860
             C1010 820, 1000 760, 950 760
             C900 760, 885 820, 930 840" />

    <path d="M360 760
             C430 690, 520 710, 560 770
             C600 830, 560 900, 500 900
             C440 900, 410 840, 455 805
             C490 780, 530 800, 520 835" />

    <path d="M250 760
             C300 720, 360 760, 360 830
             C360 900, 300 930, 250 900
             C210 875, 215 820, 255 805" />

    <path d="M140 820
             C190 790, 220 840, 190 870
             C160 900, 115 885, 120 845" />

    <path d="M200 900
             C240 870, 280 900, 255 940
             C230 970, 185 955, 190 920" />

    <path d="M300 860
             C340 820, 390 850, 370 900
             C350 940, 300 940, 295 895" />

    <path d="M720 760
             C780 710, 840 760, 820 830
             C805 880, 745 890, 720 845
             C700 810, 720 780, 750 790" />
             
  </g>
</svg>
